<svg width="28" height="28" viewBox="0 0 28 28" fill="none" xmlns="http://www.w3.org/2000/svg">
<path d="M7.29169 2.3335C5.85231 2.3335 4.66669 3.51912 4.66669 4.9585V23.0418C4.66669 24.4812 5.85231 25.6668 7.29169 25.6668H20.7084C22.1477 25.6668 23.3334 24.4812 23.3334 23.0418V10.7918C23.3333 10.5598 23.2411 10.3373 23.077 10.1732L23.0679 10.1641L15.4937 2.58984C15.3296 2.42575 15.1071 2.33354 14.875 2.3335H7.29169ZM7.29169 4.0835H14V9.04183C14 10.4812 15.1856 11.6668 16.625 11.6668H21.5834V23.0418C21.5834 23.5356 21.2021 23.9168 20.7084 23.9168H7.29169C6.7979 23.9168 6.41669 23.5356 6.41669 23.0418V4.9585C6.41669 4.46471 6.7979 4.0835 7.29169 4.0835ZM15.75 5.3208L20.346 9.91683H16.625C16.1312 9.91683 15.75 9.53562 15.75 9.04183V5.3208ZM16.625 13.4168C16.2382 13.4168 15.8673 13.5705 15.5938 13.844C15.3203 14.1175 15.1667 14.4884 15.1667 14.8752C15.1667 15.2619 15.3203 15.6329 15.5938 15.9064C15.8673 16.1799 16.2382 16.3335 16.625 16.3335C17.0118 16.3335 17.3827 16.1799 17.6562 15.9064C17.9297 15.6329 18.0834 15.2619 18.0834 14.8752C18.0834 14.4884 17.9297 14.1175 17.6562 13.844C17.3827 13.5705 17.0118 13.4168 16.625 13.4168V13.4168ZM10.2084 14.0002C10.0924 13.9985 9.97729 14.0199 9.86969 14.0632C9.76209 14.1064 9.66416 14.1706 9.58159 14.252C9.49902 14.3334 9.43345 14.4305 9.38869 14.5374C9.34394 14.6444 9.32089 14.7592 9.32089 14.8752C9.32089 14.9911 9.34394 15.1059 9.38869 15.2129C9.43345 15.3199 9.49902 15.4169 9.58159 15.4983C9.66416 15.5797 9.76209 15.6439 9.86969 15.6871C9.97729 15.7304 10.0924 15.7518 10.2084 15.7502H11.9584C12.0743 15.7518 12.1894 15.7304 12.297 15.6871C12.4046 15.6439 12.5025 15.5797 12.5851 15.4983C12.6677 15.4169 12.7333 15.3199 12.778 15.2129C12.8228 15.1059 12.8458 14.9911 12.8458 14.8752C12.8458 14.7592 12.8228 14.6444 12.778 14.5374C12.7333 14.4305 12.6677 14.3334 12.5851 14.252C12.5025 14.1706 12.4046 14.1064 12.297 14.0632C12.1894 14.0199 12.0743 13.9985 11.9584 14.0002H10.2084ZM17.1559 18.2214C17.0266 18.2275 16.9003 18.2623 16.786 18.3231C16.6717 18.384 16.5724 18.4695 16.4951 18.5734C15.9146 19.3207 15.0204 19.7982 14 19.7982C12.9797 19.7982 12.0854 19.3207 11.5049 18.5734C11.4255 18.4683 11.3234 18.3824 11.2063 18.3223C11.0891 18.2621 10.9598 18.2292 10.8281 18.2259C10.6616 18.2219 10.4974 18.2654 10.3548 18.3515C10.2122 18.4375 10.0971 18.5625 10.023 18.7117C9.94895 18.8609 9.91901 19.0281 9.9367 19.1937C9.9544 19.3593 10.019 19.5165 10.1229 19.6466C11.0206 20.8022 12.4292 21.5482 14 21.5482C15.5709 21.5482 16.9795 20.8022 17.8771 19.6466C17.9835 19.5155 18.0496 19.3564 18.0676 19.1885C18.0855 19.0206 18.0545 18.851 17.9783 18.7004C17.902 18.5497 17.7838 18.4243 17.6379 18.3393C17.492 18.2543 17.3246 18.2133 17.1559 18.2214V18.2214Z" fill="white"/>
</svg>
