<svg id="Group_68" data-name="Group 68" xmlns="http://www.w3.org/2000/svg" width="33.579" height="33.579" viewBox="0 0 33.579 33.579">
  <circle id="Ellipse_32" data-name="Ellipse 32" cx="16.79" cy="16.79" r="16.79" transform="translate(0 0)" fill="#fff"/>
  <path id="Icon_metro-eye" data-name="Icon metro-eye" d="M14.573,7.712a13.475,13.475,0,0,0-12,7.33,13.492,13.492,0,0,0,24.006,0A13.475,13.475,0,0,0,14.573,7.712ZM20.492,11.6a11.286,11.286,0,0,1,3.5,3.443,11.286,11.286,0,0,1-3.5,3.443,11.217,11.217,0,0,1-11.836,0,11.285,11.285,0,0,1-3.5-3.443,11.285,11.285,0,0,1,3.5-3.443c.092-.057.185-.113.278-.167a5.729,5.729,0,0,0-.361,2.007,6,6,0,0,0,12,0,5.731,5.731,0,0,0-.361-2.007q.14.082.278.167Zm-5.918,1.244a2.251,2.251,0,1,1-2.251-2.2A2.225,2.225,0,0,1,14.573,12.843Z" transform="translate(1.783 1.616)" fill="#004e38"/>
</svg>
