<svg xmlns="http://www.w3.org/2000/svg" width="95" height="19" viewBox="0 0 95 19">
  <g id="_4_Stars" data-name="4 Stars" transform="translate(-900 -1189)">
    <path id="Icon_material-star" data-name="Icon material-star" d="M13,18.27,19.18,22l-1.64-7.03L23,10.24l-7.19-.61L13,3,10.19,9.63,3,10.24l5.46,4.73L6.82,22Z" transform="translate(972 1186)" fill="#00973a"/>
    <path id="Icon_material-star-2" data-name="Icon material-star" d="M13,18.27,19.18,22l-1.64-7.03L23,10.24l-7.19-.61L13,3,10.19,9.63,3,10.24l5.46,4.73L6.82,22Z" transform="translate(947 1186)" fill="#00973a"/>
    <path id="Icon_material-star-3" data-name="Icon material-star" d="M13,18.27,19.18,22l-1.64-7.03L23,10.24l-7.19-.61L13,3,10.19,9.63,3,10.24l5.46,4.73L6.82,22Z" transform="translate(922 1186)" fill="#00973a"/>
    <path id="Icon_material-star-4" data-name="Icon material-star" d="M13,18.27,19.18,22l-1.64-7.03L23,10.24l-7.19-.61L13,3,10.19,9.63,3,10.24l5.46,4.73L6.82,22Z" transform="translate(897 1186)" fill="#00973a"/>
  </g>
</svg>
