<svg xmlns="http://www.w3.org/2000/svg" width="14" height="14" viewBox="0 0 14 14">
  <path id="Icon_material-phone-in-talk" data-name="Icon material-phone-in-talk" d="M17.722,14.222a8.836,8.836,0,0,1-2.777-.443.794.794,0,0,0-.793.187l-1.711,1.711a11.7,11.7,0,0,1-5.126-5.126L9.027,8.832a.747.747,0,0,0,.194-.778,8.836,8.836,0,0,1-.443-2.777A.78.78,0,0,0,8,4.5H5.278a.78.78,0,0,0-.778.778A13.221,13.221,0,0,0,17.722,18.5a.78.78,0,0,0,.778-.778V15A.78.78,0,0,0,17.722,14.222ZM16.944,11.5H18.5a7,7,0,0,0-7-7V6.056A5.44,5.44,0,0,1,16.944,11.5Zm-3.111,0h1.556A3.89,3.89,0,0,0,11.5,7.611V9.167A2.33,2.33,0,0,1,13.833,11.5Z" transform="translate(-4.5 -4.5)" fill="#006848"/>
</svg>
