<svg xmlns="http://www.w3.org/2000/svg" width="17" height="10.625" viewBox="0 0 17 10.625">
  <path id="Icon_metro-eye" data-name="Icon metro-eye" d="M11.071,7.712a9.52,9.52,0,0,0-8.5,5.312,9.456,9.456,0,0,0,17,0,9.52,9.52,0,0,0-8.5-5.312Zm4.191,2.817a8.083,8.083,0,0,1,2.481,2.5,8.083,8.083,0,0,1-2.481,2.5,7.789,7.789,0,0,1-8.382,0,8.083,8.083,0,0,1-2.481-2.5,8.083,8.083,0,0,1,2.481-2.5c.065-.042.131-.082.2-.121a4.25,4.25,0,1,0,7.988,0q.1.059.2.121Zm-4.191.9A1.594,1.594,0,1,1,9.477,9.837,1.594,1.594,0,0,1,11.071,11.431Z" transform="translate(-2.571 -7.712)" fill="#006848"/>
</svg>
